<?xml version="1.0" encoding="utf-8"?>
<!-- Generator: Adobe Illustrator 13.0.2, SVG Export Plug-In . SVG Version: 6.00 Build 14948)  -->
<!DOCTYPE svg PUBLIC "-//W3C//DTD SVG 1.1//EN" "http://www.w3.org/Graphics/SVG/1.1/DTD/svg11.dtd">
<svg version="1.1" id="Layer_1" xmlns="http://www.w3.org/2000/svg" xmlns:xlink="http://www.w3.org/1999/xlink" x="0px" y="0px"
	 width="720px" height="270px" viewBox="0 0 720 269.832" enable-background="new 0 0 720 269.832" xml:space="preserve">
<g>
	<defs>
		<path id="SVGID_1_" d="M18.33,202.184c-1.17,5.625-0.59,10.531,1.975,14.949c11.572,19.949,50.783,12.629,107.012-12.994
			c2.65-1.092,4.701-2.406,4.977-1.604c0.273,0.797-2.441,2.523-4.977,3.691C60.953,239.57,21.445,244.117,9.174,222.967
			c-3.111-5.359-4.35-12.418-3.555-20.791L18.33,202.184"/>
	</defs>
	<clipPath id="SVGID_2_">
		<use xlink:href="#SVGID_1_"  overflow="visible"/>
	</clipPath>
	<g clip-path="url(#SVGID_2_)">
		<polyline fill="#BE2F37" points="0.891,206.789 0,205.041 106.045,151.01 106.936,152.756 0.891,206.789 		"/>
		<polyline fill="#C03538" points="1.781,208.537 0.891,206.789 106.936,152.756 107.826,154.504 1.781,208.537 		"/>
		<polyline fill="#C23A37" points="2.674,210.287 1.781,208.537 107.826,154.504 108.719,156.254 2.674,210.287 		"/>
		<polyline fill="#C44038" points="3.564,212.035 2.674,210.287 108.719,156.254 109.609,158.002 3.564,212.035 		"/>
		<polyline fill="#C64538" points="4.455,213.779 3.564,212.035 109.609,158.002 110.5,159.752 4.455,213.779 		"/>
		<polyline fill="#C84A38" points="5.344,215.531 4.455,213.779 110.5,159.752 111.389,161.5 5.344,215.531 		"/>
		<polyline fill="#C94F38" points="6.234,217.279 5.344,215.531 111.389,161.5 112.279,163.248 6.234,217.279 		"/>
		<polyline fill="#CC5437" points="7.127,219.029 6.234,217.279 112.279,163.248 113.172,164.998 7.127,219.029 		"/>
		<polyline fill="#CE5937" points="8.018,220.779 7.127,219.029 113.172,164.998 114.062,166.748 8.018,220.779 		"/>
		<polyline fill="#D05E37" points="8.908,222.527 8.018,220.779 114.062,166.748 114.953,168.492 8.908,222.527 		"/>
		<polyline fill="#D26337" points="9.799,224.275 8.908,222.527 114.953,168.492 115.846,170.242 9.799,224.275 		"/>
		<polyline fill="#D46736" points="10.691,226.025 9.799,224.275 115.846,170.242 116.734,171.992 10.691,226.025 		"/>
		<polyline fill="#D66B36" points="11.582,227.773 10.691,226.025 116.734,171.992 117.627,173.74 11.582,227.773 		"/>
		<polyline fill="#D87035" points="12.473,229.52 11.582,227.773 117.627,173.74 118.518,175.488 12.473,229.52 		"/>
		<polyline fill="#DA7434" points="13.365,231.27 12.473,229.52 118.518,175.488 119.408,177.236 13.365,231.27 		"/>
		<polyline fill="#DC7833" points="14.256,233.02 13.365,231.27 119.408,177.236 120.301,178.988 14.256,233.02 		"/>
		<polyline fill="#DE7C32" points="15.145,234.766 14.256,233.02 120.301,178.988 121.191,180.732 15.145,234.766 		"/>
		<polyline fill="#E08131" points="16.035,236.516 15.145,234.766 121.191,180.732 122.08,182.482 16.035,236.516 		"/>
		<polyline fill="#E2852F" points="16.926,238.266 16.035,236.516 122.08,182.482 122.973,184.232 16.926,238.266 		"/>
		<polyline fill="#E48A2E" points="17.818,240.014 16.926,238.266 122.973,184.232 123.861,185.98 17.818,240.014 		"/>
		<polyline fill="#E68F2C" points="18.709,241.762 17.818,240.014 123.861,185.98 124.754,187.729 18.709,241.762 		"/>
		<polyline fill="#E8932B" points="19.6,243.512 18.709,241.762 124.754,187.729 125.645,189.477 19.6,243.512 		"/>
		<polyline fill="#EB9828" points="20.492,245.256 19.6,243.512 125.645,189.477 126.535,191.229 20.492,245.256 		"/>
		<polyline fill="#ED9D27" points="21.383,247.008 20.492,245.256 126.535,191.229 127.428,192.977 21.383,247.008 		"/>
		<polyline fill="#EFA224" points="22.273,248.756 21.383,247.008 127.428,192.977 128.318,194.721 22.273,248.756 		"/>
		<polyline fill="#F2A721" points="23.166,250.506 22.273,248.756 128.318,194.721 129.209,196.475 23.166,250.506 		"/>
		<polyline fill="#F4AC1D" points="24.055,252.254 23.166,250.506 129.209,196.475 130.1,198.221 24.055,252.254 		"/>
		<polyline fill="#F7B11A" points="24.947,254.002 24.055,252.254 130.1,198.221 130.992,199.969 24.947,254.002 		"/>
		<polyline fill="#FAB715" points="25.838,255.752 24.947,254.002 130.992,199.969 131.883,201.719 25.838,255.752 		"/>
		<polyline fill="#FEBD10" points="26.729,257.496 25.838,255.752 131.883,201.719 132.773,203.465 26.729,257.496 		"/>
	</g>
</g>
<path fill="#BE2F37" d="M5.68,202.184c1.445-15.26,9.562-34.908,25.41-56.693c2.092-3.053,4.896-3.893,8-3.893
	c6.074,0,10.998,4.922,10.998,10.998c0,2.238-1.518,3.93-2.666,5.668c-17.191,18.746-26.889,32.764-29.213,43.922L5.68,202.184"/>
<path fill="#BE2F37" d="M270.34,90.285c-6.818,16.264-19.377,35.318-38.955,56.24c-2.004,2.195-5.035,3.533-8.35,3.533
	c-6.029,0-10.92-4.604-10.92-10.279c0-2.941,1.348-5.59,3.455-7.463c15.568-14.881,28.391-29.273,37.234-42.021L270.34,90.285"/>
<g>
	<defs>
		<path id="SVGID_3_" d="M252.793,90.285c12.041-17.367,16.652-31.43,10.809-39.777c-14.111-20.146-56.984-12.24-107.119,13.018
			c-2.41,1.123-4.91,1.799-5.285,0.996c-0.375-0.805,1.041-1.643,3.453-2.766c54.273-29.191,102.467-36.635,117.428-15.271
			c6.291,8.99,6.471,24.219-1.738,43.801H252.793"/>
	</defs>
	<clipPath id="SVGID_4_">
		<use xlink:href="#SVGID_3_"  overflow="visible"/>
	</clipPath>
	<polyline clip-path="url(#SVGID_4_)" fill="#FEBD10" points="151.359,64.871 150.521,63.076 257.021,13.414 257.857,15.211 
		151.359,64.871 	"/>
	<polyline clip-path="url(#SVGID_4_)" fill="#FAB715" points="152.197,66.67 151.359,64.871 257.857,15.211 258.697,17.01 
		152.197,66.67 	"/>
	<polyline clip-path="url(#SVGID_4_)" fill="#F8B418" points="153.035,68.465 152.197,66.67 258.697,17.01 259.533,18.803 
		153.035,68.465 	"/>
	<polyline clip-path="url(#SVGID_4_)" fill="#F6AF1B" points="153.873,70.26 153.035,68.465 259.533,18.803 260.371,20.6 
		153.873,70.26 	"/>
	<polyline clip-path="url(#SVGID_4_)" fill="#F4AB1E" points="154.711,72.057 153.873,70.26 260.371,20.6 261.209,22.395 
		154.711,72.057 	"/>
	<polyline clip-path="url(#SVGID_4_)" fill="#F2A721" points="155.549,73.854 154.711,72.057 261.209,22.395 262.047,24.191 
		155.549,73.854 	"/>
	<polyline clip-path="url(#SVGID_4_)" fill="#F0A323" points="156.385,75.646 155.549,73.854 262.047,24.191 262.885,25.986 
		156.385,75.646 	"/>
	<polyline clip-path="url(#SVGID_4_)" fill="#EE9F26" points="157.225,77.443 156.385,75.646 262.885,25.986 263.723,27.781 
		157.225,77.443 	"/>
	<polyline clip-path="url(#SVGID_4_)" fill="#EC9B27" points="158.061,79.242 157.225,77.443 263.723,27.781 264.557,29.58 
		158.061,79.242 	"/>
	<polyline clip-path="url(#SVGID_4_)" fill="#EA9728" points="158.898,81.037 158.061,79.242 264.557,29.58 265.395,31.377 
		158.898,81.037 	"/>
	<polyline clip-path="url(#SVGID_4_)" fill="#E9942A" points="159.734,82.832 158.898,81.037 265.395,31.377 266.234,33.172 
		159.734,82.832 	"/>
	<polyline clip-path="url(#SVGID_4_)" fill="#E7902C" points="160.572,84.629 159.734,82.832 266.234,33.172 267.07,34.967 
		160.572,84.629 	"/>
	<polyline clip-path="url(#SVGID_4_)" fill="#E68D2D" points="161.41,86.426 160.572,84.629 267.07,34.967 267.908,36.764 
		161.41,86.426 	"/>
	<polyline clip-path="url(#SVGID_4_)" fill="#E4892E" points="162.25,88.223 161.41,86.426 267.908,36.764 268.746,38.561 
		162.25,88.223 	"/>
	<polyline clip-path="url(#SVGID_4_)" fill="#E2862F" points="163.086,90.018 162.25,88.223 268.746,38.561 269.584,40.357 
		163.086,90.018 	"/>
	<polyline clip-path="url(#SVGID_4_)" fill="#E18231" points="163.924,91.812 163.086,90.018 269.584,40.357 270.422,42.152 
		163.924,91.812 	"/>
	<polyline clip-path="url(#SVGID_4_)" fill="#DF7F32" points="164.762,93.609 163.924,91.812 270.422,42.152 271.26,43.947 
		164.762,93.609 	"/>
	<polyline clip-path="url(#SVGID_4_)" fill="#DD7B32" points="165.598,95.406 164.762,93.609 271.26,43.947 272.098,45.744 
		165.598,95.406 	"/>
	<polyline clip-path="url(#SVGID_4_)" fill="#DC7833" points="166.436,97.201 165.598,95.406 272.098,45.744 272.936,47.543 
		166.436,97.201 	"/>
	<polyline clip-path="url(#SVGID_4_)" fill="#DA7534" points="167.273,98.996 166.436,97.201 272.936,47.543 273.771,49.334 
		167.273,98.996 	"/>
	<polyline clip-path="url(#SVGID_4_)" fill="#D97135" points="168.111,100.795 167.273,98.996 273.771,49.334 274.607,51.133 
		168.111,100.795 	"/>
	<polyline clip-path="url(#SVGID_4_)" fill="#D76E35" points="168.949,102.59 168.111,100.795 274.607,51.133 275.445,52.93 
		168.949,102.59 	"/>
	<polyline clip-path="url(#SVGID_4_)" fill="#D56A35" points="169.785,104.385 168.949,102.59 275.445,52.93 276.283,54.723 
		169.785,104.385 	"/>
	<polyline clip-path="url(#SVGID_4_)" fill="#D46736" points="170.623,106.182 169.785,104.385 276.283,54.723 277.121,56.52 
		170.623,106.182 	"/>
	<polyline clip-path="url(#SVGID_4_)" fill="#D26336" points="171.461,107.977 170.623,106.182 277.121,56.52 277.959,58.314 
		171.461,107.977 	"/>
	<polyline clip-path="url(#SVGID_4_)" fill="#D15F37" points="172.299,109.775 171.461,107.977 277.959,58.314 278.797,60.113 
		172.299,109.775 	"/>
	<polyline clip-path="url(#SVGID_4_)" fill="#CF5C37" points="173.135,111.566 172.299,109.775 278.797,60.113 279.635,61.91 
		173.135,111.566 	"/>
	<polyline clip-path="url(#SVGID_4_)" fill="#CD5837" points="173.975,113.365 173.135,111.566 279.635,61.91 280.473,63.703 
		173.975,113.365 	"/>
	<polyline clip-path="url(#SVGID_4_)" fill="#CC5437" points="174.811,115.162 173.975,113.365 280.473,63.703 281.309,65.5 
		174.811,115.162 	"/>
	<polyline clip-path="url(#SVGID_4_)" fill="#CA5138" points="175.648,116.957 174.811,115.162 281.309,65.5 282.145,67.295 
		175.648,116.957 	"/>
	<polyline clip-path="url(#SVGID_4_)" fill="#C94D38" points="176.484,118.752 175.648,116.957 282.145,67.295 282.982,69.092 
		176.484,118.752 	"/>
	<polyline clip-path="url(#SVGID_4_)" fill="#C84938" points="177.322,120.547 176.484,118.752 282.982,69.092 283.82,70.887 
		177.322,120.547 	"/>
	<polyline clip-path="url(#SVGID_4_)" fill="#C64538" points="178.16,122.344 177.322,120.547 283.82,70.887 284.658,72.684 
		178.16,122.344 	"/>
	<polyline clip-path="url(#SVGID_4_)" fill="#C54038" points="178.998,124.143 178.16,122.344 284.658,72.684 285.496,74.48 
		178.998,124.143 	"/>
	<polyline clip-path="url(#SVGID_4_)" fill="#C33C38" points="179.836,125.936 178.998,124.143 285.496,74.48 286.334,76.273 
		179.836,125.936 	"/>
	<polyline clip-path="url(#SVGID_4_)" fill="#C13838" points="180.672,127.732 179.836,125.936 286.334,76.273 287.172,78.07 
		180.672,127.732 	"/>
	<polyline clip-path="url(#SVGID_4_)" fill="#C03337" points="181.512,129.527 180.672,127.732 287.172,78.07 288.01,79.867 
		181.512,129.527 	"/>
	<polyline clip-path="url(#SVGID_4_)" fill="#BE2F37" points="182.348,131.324 181.512,129.527 288.01,79.867 288.844,81.662 
		182.348,131.324 	"/>
</g>
<g>
	<polyline fill="#33297A" points="199.953,222.061 194.203,240.158 175.258,240.158 190.482,251.66 184.561,269.762 
		199.783,258.598 215.008,269.762 209.258,251.66 224.818,240.158 205.703,240.158 199.953,222.061 	"/>
</g>
<rect x="62.768" y="33.998" fill="#BE2F37" width="22.572" height="42.436"/>
<polyline fill="#BE2F37" points="90.764,77.33 90.764,16.664 113.396,16.664 113.396,100.678 90.764,77.33 "/>
<rect x="118.764" fill="#BE2F37" width="22.791" height="106.664"/>
<polyline fill="#33297A" points="34.1,133.699 81.32,133.699 81.32,100.898 57.428,76.434 34.1,100.898 34.1,133.699 "/>
<polyline fill-rule="evenodd" clip-rule="evenodd" fill="#33297A" points="172.625,137.232 146.914,106.656 146.967,106.699 
	161.572,89.678 169.697,99.029 169.697,89.678 177.82,89.678 177.82,109.164 187.227,120.078 187.227,146.473 172.625,146.473 
	172.625,137.232 "/>
<polyline fill="#33297A" points="95.615,106.779 95.615,127.881 85.432,139.695 85.432,176.354 141.383,176.357 141.449,139.695 
	113.211,106.779 104.412,116.908 104.412,106.779 95.615,106.779 "/>
<polyline fill="#33297A" points="171.092,172.363 177.971,195.082 200.629,195.082 182.42,209.516 189.5,232.238 171.293,218.223 
	153.086,232.238 159.965,209.516 141.354,195.082 164.213,195.082 171.092,172.363 "/>
<polyline fill="#33297A" points="200.605,139.68 194.857,157.779 175.91,157.779 191.137,169.281 185.217,187.379 200.439,176.215 
	215.66,187.379 209.91,169.281 225.473,157.779 206.359,157.779 200.605,139.68 "/>
<line fill="none" stroke="#FEBD10" stroke-width="2.6152" stroke-miterlimit="3.864" x1="304.758" y1="222.682" x2="720" y2="222.682"/>
<path fill-rule="evenodd" clip-rule="evenodd" fill="#BE2F37" d="M478.822,265.896c-0.018-0.006-0.037-0.016-0.061-0.029
	l-0.238-1.963l-1.926-0.238l-0.111,2.23H478.822z"/>
<path fill-rule="evenodd" clip-rule="evenodd" fill="#BE2F37" d="M375.361,269.111v-3.215h-4.807v3.215H375.361z M375.361,265.896
	v-1.592h-4.807v1.592H375.361z"/>
<path fill-rule="evenodd" clip-rule="evenodd" fill="#BE2F37" d="M340.514,269.111v-3.215h-4.807v3.215H340.514z M340.514,265.896
	v-1.592h-4.807v1.592H340.514z"/>
<path fill-rule="evenodd" clip-rule="evenodd" fill="#BE2F37" d="M698.504,265.896c0.148,0.225,0.309,0.441,0.482,0.648
	c2.084,2.566,5.207,3.287,8.328,3.287c3.525,0,6.424-0.861,8.424-3.941l-3.029,0.006c-1.279,1.34-3.266,2.016-5.115,2.016
	c-1.904,0-3.77-0.691-5.025-2.021L698.504,265.896 M714.441,259.996c-0.039,1.77-0.23,3.619-1.076,5.029
	c-0.193,0.311-0.412,0.598-0.656,0.861l3.029,0.01c0.025-0.039,0.045-0.076,0.07-0.109c1.16-1.85,1.486-3.787,1.576-5.795
	L714.441,259.996z M696.908,259.996c0.111,2.086,0.475,4.174,1.596,5.895l4.064,0.006c-0.508-0.547-0.918-1.197-1.18-1.949
	c-0.389-1.029-0.555-2.5-0.627-3.941L696.908,259.996z M714.443,254.07v3.787c0,0.674,0.014,1.398-0.002,2.139h2.943
	c0.041-1.045,0.025-2.105,0.025-3.182v-2.744H714.443 M696.861,254.07v3.787c0,0.703,0.008,1.422,0.047,2.143l3.854-0.004
	c-0.055-1.07-0.055-2.135-0.055-2.98v-2.945H696.861z M717.41,254.07v-3.908h-2.963v3.908H717.41z M700.707,254.07v-3.908h-3.846
	v3.908H700.707z M714.332,244.262l0.111,1.658v4.242h2.967v-4.242l0.107-1.658H714.332 M696.752,244.262l0.109,1.658v4.242h3.846
	v-4.242l0.111-1.658H696.752z M717.518,244.262l0.131-1.945l1.682-0.242l0.244-1.922h-7.295l0.244,1.922l1.682,0.242l0.127,1.945
	H717.518 M700.818,244.262l0.127-1.945l1.684-0.242l0.24-1.922h-8.168l0.236,1.922l1.682,0.242l0.133,1.945H700.818z"/>
<path fill-rule="evenodd" clip-rule="evenodd" fill="#BE2F37" d="M685.543,265.896l0.422,1.053l-1.918,0.242l-0.242,1.92h8.012
	l-0.238-1.92l-1.205-0.242l-0.502-1.053H685.543z M666.441,265.896l-0.5,1.053l-1.201,0.242l-0.24,1.92h6.41l-0.244-1.92
	l-1.922-0.242l0.395-1.053H666.441z M669.027,259.996l-1.123,2.865l-1.463,3.035h2.697l2.051-5.479h12.135l2.219,5.479h4.328
	l-1.018-2.113l-1.502-3.787H669.027z M671.355,254.07l-2.328,5.926h18.324l-2.34-5.926h-4.189l1.742,4.428h-10.613l1.729-4.428
	H671.355z M679.283,250.162l1.539,3.908h4.189l-1.543-3.908H679.283z M672.883,250.162l-1.527,3.908h2.324l1.523-3.908H672.883z
	 M675.197,244.262l-2.314,5.9h2.32l2.033-5.199l2.047,5.199h4.186l-2.334-5.9H675.197z M681.135,244.262l-1.814-4.592H677
	l-1.803,4.592H681.135z"/>
<path fill-rule="evenodd" clip-rule="evenodd" fill="#BE2F37" d="M645.627,265.896l-0.074,1.053l-1.68,0.242l-0.238,1.92h19.186
	l-0.162-3.215h-2.152l-0.092,0.814l-3.965,0.238h-6.568l-0.07-1.053H645.627z M662.658,265.896l-0.082-1.592l-1.92,0.244
	l-0.15,1.348H662.658 M645.795,259.996v3.348l-0.168,2.553h4.184l-0.17-2.553v-3.348H645.795z M645.795,254.07v5.926h3.846v-5.104
	h5.088l4.85,0.242l0.115-1.064H645.795z M645.795,250.162v3.908h13.898l0.121-1.1h-10.174v-2.809H645.795z M659.814,244.262v0.016
	l1.926,0.238l0.012-0.254H659.814z M645.686,244.262l0.109,1.658v4.242h3.846v-5.9H645.686z M649.641,244.262v-2.188h5.811
	l4.127,0.242l0.236,1.945h1.938l0.225-4.109h-18.342l0.238,1.922l1.68,0.242l0.133,1.945H649.641z"/>
<path fill-rule="evenodd" clip-rule="evenodd" fill="#BE2F37" d="M631.854,265.896l1.936,3.215h5.846l-0.242-1.92l-1.684-0.242
	l-0.764-1.053H631.854z M618.594,265.896l-0.068,1.053l-1.682,0.242l-0.236,1.92h7.689l-0.244-1.92l-1.441-0.242v-1.053H618.594z
	 M628.303,259.996l3.551,5.9h5.092l-1.598-2.191l-2.457-3.709H628.303z M618.768,259.996v3.348l-0.174,2.553h4.018v-5.9H618.768z
	 M618.768,254.07v5.926h3.844v-3.662h3.488l2.203,3.662h4.588l-2.99-4.504c1.029-0.334,1.959-0.814,2.76-1.418l-5.299-0.004
	c-1.283,0.326-2.678,0.342-3.986,0.342h-0.764v-0.342H618.768z M631.492,250.162c-0.33,1.08-0.912,2.066-1.828,2.809
	c-0.682,0.551-1.471,0.893-2.303,1.104l5.299-0.004c1.326-0.994,2.303-2.324,2.832-3.9L631.492,250.162z M622.611,254.07v-3.908
	h-3.846v3.908H622.611z M631.016,244.262c0.549,0.826,0.848,1.895,0.848,3.219c0,0.9-0.105,1.816-0.371,2.674l4,0.008
	c0.299-0.869,0.459-1.826,0.459-2.84c0-1.084-0.191-2.123-0.6-3.064L631.016,244.262z M618.658,244.262l0.109,1.658v4.242h3.844
	v-5.9H618.658z M622.611,244.262v-1.707c1.123-0.277,2.24-0.48,3.408-0.48c2.256,0,4.021,0.707,4.996,2.184l4.336,0.004
	c-0.459-1.078-1.199-2.02-2.248-2.748c-1.721-1.199-3.926-1.361-5.965-1.361h-10.531l0.236,1.922l1.682,0.242l0.133,1.945H622.611z"
	/>
<path fill-rule="evenodd" clip-rule="evenodd" fill="#BE2F37" d="M590.738,265.896c0.146,0.225,0.305,0.441,0.479,0.648
	c2.086,2.566,5.209,3.287,8.332,3.287c3.527,0,6.424-0.861,8.426-3.941l-3.035,0.006c-1.275,1.34-3.262,2.016-5.111,2.016
	c-1.904,0-3.771-0.691-5.023-2.021L590.738,265.896z M606.672,259.996c-0.041,1.77-0.229,3.619-1.078,5.029
	c-0.186,0.311-0.404,0.598-0.654,0.861l3.035,0.01c0.021-0.039,0.043-0.076,0.062-0.109c1.166-1.85,1.492-3.787,1.582-5.795
	L606.672,259.996z M589.143,259.996c0.109,2.086,0.477,4.174,1.596,5.895l4.066,0.006c-0.508-0.547-0.92-1.197-1.184-1.949
	c-0.385-1.029-0.557-2.5-0.625-3.941L589.143,259.996z M606.682,254.07v3.787c0,0.674,0.012,1.398-0.01,2.139h2.947
	c0.039-1.045,0.023-2.105,0.023-3.182v-2.744H606.682z M589.096,254.07v3.787c0,0.703,0.01,1.422,0.047,2.143l3.854-0.004
	c-0.055-1.07-0.055-2.135-0.055-2.98v-2.945H589.096z M609.643,254.07v-3.908h-2.961v3.908H609.643z M592.941,254.07v-3.908h-3.846
	v3.908H592.941z M606.568,244.262l0.113,1.658v4.242h2.961v-4.242l0.109-1.658H606.568z M588.986,244.262l0.109,1.658v4.242h3.846
	v-4.242l0.107-1.658H588.986z M609.752,244.262l0.131-1.945l1.684-0.242l0.238-1.922h-7.289l0.24,1.922l1.68,0.242l0.133,1.945
	H609.752z M593.049,244.262l0.129-1.945l1.684-0.242l0.242-1.922h-8.168l0.236,1.922l1.684,0.242l0.131,1.945H593.049z"/>
<path fill-rule="evenodd" clip-rule="evenodd" fill="#BE2F37" d="M564.695,265.896l-0.074,1.053l-1.68,0.242l-0.24,1.92h9.094
	c2.443,0,5.084,0.078,7.209-1.281c0.812-0.516,1.484-1.174,2.002-1.928l-4.848-0.006c-1.279,1.021-2.9,1.295-4.482,1.295
	l-2.688-0.242l-0.08-1.053H564.695z M577.953,259.996c0.137,0.473,0.211,0.973,0.211,1.508c0,1.518-0.604,3.045-1.684,4.123
	c-0.105,0.1-0.211,0.191-0.322,0.275l4.848-0.006c0.809-1.174,1.24-2.602,1.24-4.115c0-0.629-0.078-1.225-0.223-1.789
	L577.953,259.996z M564.863,259.996v3.348l-0.168,2.553h4.213l-0.199-2.553v-3.348H564.863z M564.863,254.07v5.926h3.846v-4.904
	h1.242c3.219,0,7.076,1.68,8.002,4.904h4.07c-0.852-3.301-4.014-5.482-7.467-5.824v-0.08c0.037-0.01,0.076-0.021,0.113-0.033
	L564.863,254.07z M564.863,250.162v3.908h9.807c2.201-0.678,4.23-2.018,5.387-3.912l-3.625,0.004
	c-0.379,0.748-0.926,1.418-1.676,1.967c-1.641,1.162-3.402,1.043-5.324,1.043h-0.723v-3.01H564.863z M576.359,244.262
	c0.457,0.691,0.721,1.627,0.721,2.863c0,1.086-0.201,2.119-0.648,3.025l3.625,0.012c0.623-1.031,0.988-2.223,0.988-3.559
	c0-0.787-0.146-1.584-0.428-2.332L576.359,244.262z M564.752,244.262l0.111,1.658v4.242h3.846v-5.9H564.752z M568.709,244.262
	v-2.188h0.443c2.811,0,5.85,0.092,7.207,2.176l4.258,0.012c-0.467-1.225-1.295-2.328-2.416-3.027
	c-1.682-1.043-3.881-1.082-5.764-1.082h-9.736l0.24,1.922l1.68,0.242l0.131,1.945H568.709z"/>
<path fill-rule="evenodd" clip-rule="evenodd" fill="#BE2F37" d="M527.865,265.896l-0.127,2.613
	c2.646,0.721,5.447,1.322,8.211,1.322c3.299,0,6.436-1.408,8.125-3.941l-3.748,0.006c-1.076,1.289-2.781,2.016-4.697,2.016
	c-1.977,0-3.799-0.939-5.428-2.004L527.865,265.896z M530.201,265.896c-0.018-0.006-0.043-0.016-0.061-0.029l-0.238-1.963
	l-1.926-0.238l-0.111,2.23H530.201z M540.984,259.996c0.338,0.684,0.533,1.488,0.533,2.467c0,1.379-0.445,2.539-1.191,3.428
	l3.748,0.006c0.811-1.219,1.287-2.695,1.287-4.393c0-0.521-0.047-1.02-0.135-1.498L540.984,259.996z M532.854,254.07
	c1.012,0.666,2.086,1.254,3.096,1.824c2.064,1.18,4.098,2.182,5.035,4.098l4.242,0.004c-0.338-1.807-1.314-3.338-2.869-4.543
	c-0.611-0.467-1.301-0.936-2.018-1.383H532.854z M528.949,250.162c0.84,1.623,2.299,2.857,3.904,3.908h7.486
	c-1.117-0.701-2.301-1.373-3.35-1.982c-1.043-0.59-2.125-1.184-3.016-1.924L528.949,250.162z M541.682,244.262l0.076,0.617
	l1.92,0.24l0.045-0.857H541.682z M528.812,244.262c-0.385,0.896-0.594,1.867-0.594,2.863c0,1.146,0.271,2.158,0.73,3.045
	l5.025-0.008c-1.16-0.961-1.992-2.17-1.992-3.959c0-0.682,0.135-1.338,0.375-1.943L528.812,244.262z M532.357,244.262
	c0.676-1.672,2.209-2.906,4.152-2.906c1.764,0,3.484,0.643,5.008,1.562l0.164,1.344h2.041l0.197-3.627
	c-2.361-0.762-4.887-1.203-7.371-1.203c-2.283,0-4.283,0.6-5.928,2.203c-0.773,0.752-1.395,1.648-1.809,2.627H532.357z"/>
<path fill-rule="evenodd" clip-rule="evenodd" fill="#BE2F37" d="M501.992,265.896c0.145,0.225,0.309,0.441,0.482,0.648
	c2.082,2.566,5.205,3.287,8.328,3.287c3.527,0,6.424-0.861,8.424-3.941l-3.031,0.006c-1.279,1.34-3.264,2.016-5.113,2.016
	c-1.904,0-3.77-0.691-5.023-2.021L501.992,265.896z M517.928,259.996c-0.037,1.77-0.232,3.619-1.074,5.029
	c-0.189,0.311-0.41,0.598-0.658,0.861l3.031,0.01c0.025-0.039,0.045-0.076,0.07-0.109c1.158-1.85,1.486-3.787,1.576-5.795
	L517.928,259.996z M500.396,259.996c0.109,2.086,0.477,4.174,1.596,5.895l4.07,0.006c-0.51-0.547-0.918-1.197-1.186-1.949
	c-0.387-1.029-0.555-2.5-0.627-3.941L500.396,259.996z M517.936,254.07v3.787c0,0.674,0.01,1.398-0.008,2.139h2.945
	c0.043-1.045,0.023-2.105,0.023-3.182v-2.744H517.936z M500.35,254.07v3.787c0,0.703,0.01,1.422,0.047,2.143l3.854-0.004
	c-0.055-1.07-0.055-2.135-0.055-2.98v-2.945H500.35z M520.896,254.07v-3.908h-2.965v3.908H520.896z M504.195,254.07v-3.908h-3.846
	v3.908H504.195z M517.82,244.262l0.115,1.658v4.242h2.961v-4.242l0.109-1.658H517.82z M500.24,244.262l0.109,1.658v4.242h3.846
	v-4.242l0.111-1.658H500.24z M521.006,244.262l0.131-1.945l1.684-0.242l0.238-1.922h-7.289l0.242,1.922l1.684,0.242l0.125,1.945
	H521.006z M504.307,244.262l0.127-1.945l1.684-0.242l0.24-1.922h-8.17l0.238,1.922l1.682,0.242l0.133,1.945H504.307z"/>
<path fill-rule="evenodd" clip-rule="evenodd" fill="#BE2F37" d="M476.486,265.896l-0.125,2.613
	c2.643,0.721,5.447,1.322,8.209,1.322c3.301,0,6.436-1.408,8.125-3.941l-3.748,0.006c-1.076,1.289-2.781,2.016-4.697,2.016
	c-1.977,0-3.799-0.939-5.428-2.004L476.486,265.896z M489.605,259.996c0.338,0.684,0.531,1.488,0.531,2.467
	c0,1.379-0.443,2.539-1.189,3.428l3.748,0.006c0.809-1.219,1.287-2.695,1.287-4.393c0-0.521-0.049-1.02-0.137-1.498L489.605,259.996
	z M481.475,254.07c1.012,0.666,2.084,1.254,3.096,1.824c2.061,1.18,4.1,2.182,5.035,4.098l4.24,0.004
	c-0.338-1.807-1.314-3.338-2.867-4.543c-0.611-0.467-1.303-0.936-2.018-1.383H481.475z M477.57,250.162
	c0.838,1.623,2.295,2.857,3.904,3.908h7.486c-1.119-0.701-2.303-1.373-3.352-1.982c-1.043-0.59-2.125-1.184-3.016-1.924
	L477.57,250.162z M490.301,244.262l0.078,0.617l1.918,0.24l0.049-0.857H490.301z M477.432,244.262
	c-0.383,0.896-0.594,1.867-0.594,2.863c0,1.146,0.27,2.158,0.732,3.045l5.023-0.008c-1.156-0.961-1.988-2.17-1.988-3.959
	c0-0.682,0.131-1.338,0.375-1.943L477.432,244.262z M480.98,244.262c0.672-1.672,2.205-2.906,4.15-2.906
	c1.762,0,3.482,0.643,5.006,1.562l0.164,1.344h2.045l0.195-3.627c-2.365-0.762-4.887-1.203-7.373-1.203
	c-2.283,0-4.281,0.6-5.928,2.203c-0.771,0.752-1.395,1.648-1.809,2.627H480.98z"/>
<path fill-rule="evenodd" clip-rule="evenodd" fill="#BE2F37" d="M463.447,265.896l2.297,3.578h3.285v-3.578H463.447z
	 M447.953,265.896l-0.076,1.053l-1.676,0.242l-0.242,1.92h7.051l-0.246-1.92l-1.678-0.242l-0.074-1.053H447.953z M459.658,259.996
	l3.789,5.9h5.582v-5.9h-2.723v3.752l-2.414-3.752H459.658z M448.121,259.996v3.348l-0.168,2.553h3.059l-0.168-2.553v-3.348H448.121z
	 M469.029,259.996v-5.926h-2.723v5.926H469.029z M455.85,254.07l3.809,5.926h4.234l-3.812-5.926H455.85z M450.844,259.996v-5.926
	h-2.723v5.926H450.844z M469.029,254.07v-3.908h-2.723v3.908H469.029z M453.338,250.162l2.512,3.908h4.23l-2.514-3.908H453.338z
	 M450.844,254.07v-3.908h-2.723v3.908H450.844z M466.195,244.262l0.111,1.658v4.242h2.723v-4.242l0.107-1.658H466.195z
	 M448.008,244.262l0.113,1.658v4.242h2.723v-3.879l2.494,3.879h4.229l-3.795-5.9H448.008z M469.137,244.262l0.133-1.945l1.68-0.242
	l0.244-1.922h-7.049l0.236,1.922l1.684,0.242l0.131,1.945H469.137z M453.771,244.262l-2.648-4.109h-5.164l0.242,1.922l1.676,0.242
	l0.131,1.945H453.771z"/>
<path fill-rule="evenodd" clip-rule="evenodd" fill="#BE2F37" d="M424.924,265.896l-0.074,1.053l-1.684,0.242l-0.236,1.92h19.184
	l-0.16-3.215h-2.154l-0.088,0.814l-3.967,0.238h-6.566l-0.072-1.053H424.924z M441.953,265.896l-0.078-1.592l-1.926,0.244
	l-0.15,1.348H441.953z M425.09,259.996v3.348l-0.166,2.553h4.182l-0.168-2.553v-3.348H425.09z M425.09,254.07v5.926h3.848v-5.104
	h5.084l4.848,0.242l0.115-1.064H425.09z M425.09,250.162v3.908h13.895l0.121-1.1h-10.168v-2.809H425.09z M439.105,244.262v0.016
	l1.926,0.238l0.014-0.254H439.105z M424.98,244.262l0.109,1.658v4.242h3.848v-5.9H424.98z M428.938,244.262v-2.188h5.809
	l4.123,0.242l0.236,1.945h1.939l0.227-4.109H422.93l0.236,1.922l1.684,0.242l0.131,1.945H428.938z"/>
<path fill-rule="evenodd" clip-rule="evenodd" fill="#BE2F37" d="M398.377,265.896c2.744,2.986,6.207,3.936,10.221,3.936
	c3.127,0,6.369-0.602,9.051-2.324v-1.611h-1.055c-2.146,1.223-4.803,1.893-7.195,1.893c-2.449,0-4.496-0.703-6.127-1.887
	L398.377,265.896z M417.648,265.896v-0.67c-0.332,0.242-0.684,0.465-1.055,0.674L417.648,265.896z M395.061,259.996
	c0.57,1.973,1.51,3.822,2.92,5.473c0.131,0.152,0.264,0.299,0.396,0.443l4.895-0.016c-1.939-1.4-3.299-3.482-4.076-5.887
	L395.061,259.996z M394.34,254.07c0,0.135,0,0.258,0,0.381c0,1.912,0.211,3.777,0.721,5.545h4.135
	c-0.514-1.574-0.773-3.303-0.773-5.064c0-0.281,0.01-0.57,0.023-0.861H394.34z M394.795,250.162c-0.281,1.312-0.43,2.648-0.455,3.92
	l4.105-0.012c0.055-1.281,0.24-2.605,0.551-3.902L394.795,250.162z M415.092,244.262l0.113,0.98l1.924,0.238l0.064-1.219H415.092z
	 M397.328,244.262c-1.25,1.682-2.07,3.762-2.533,5.898l4.201,0.002c0.391-1.6,0.984-3.15,1.789-4.482
	c0.32-0.521,0.664-1,1.041-1.426L397.328,244.262z M401.826,244.262c1.723-1.965,4.051-2.906,6.811-2.906
	c2.244,0,4.326,0.68,6.33,1.842l0.125,1.064h2.102l0.178-3.389l-0.604-0.158c-2.924-0.762-5.287-1.283-8.33-1.283
	c-4.123,0-7.852,0.963-10.615,4.203c-0.172,0.203-0.338,0.412-0.494,0.623L401.826,244.262z"/>
<path fill-rule="evenodd" clip-rule="evenodd" fill="#BE2F37" d="M347.09,265.896l-0.127,2.613c2.641,0.721,5.443,1.322,8.211,1.322
	c3.299,0,6.438-1.408,8.125-3.941l-3.748,0.006c-1.074,1.289-2.785,2.016-4.697,2.016c-1.98,0-3.801-0.939-5.428-2.004
	L347.09,265.896z M349.426,265.896c-0.02-0.006-0.041-0.016-0.059-0.029l-0.242-1.963l-1.924-0.238l-0.111,2.23H349.426z
	 M360.209,259.996c0.338,0.684,0.531,1.488,0.531,2.467c0,1.379-0.441,2.539-1.189,3.428l3.748,0.006
	c0.809-1.219,1.285-2.695,1.285-4.393c0-0.521-0.045-1.02-0.137-1.498L360.209,259.996z M352.074,254.07
	c1.02,0.666,2.09,1.254,3.1,1.824c2.059,1.18,4.1,2.182,5.035,4.098l4.238,0.004c-0.338-1.807-1.312-3.338-2.865-4.543
	c-0.613-0.467-1.303-0.936-2.02-1.383H352.074z M348.176,250.162c0.836,1.623,2.295,2.857,3.898,3.908h7.488
	c-1.119-0.701-2.299-1.373-3.35-1.982c-1.043-0.59-2.127-1.184-3.014-1.924L348.176,250.162z M360.906,244.262l0.072,0.617
	l1.924,0.24l0.043-0.857H360.906z M348.031,244.262c-0.381,0.896-0.59,1.867-0.59,2.863c0,1.146,0.27,2.158,0.734,3.045l5.023-0.008
	c-1.16-0.961-1.992-2.17-1.992-3.959c0-0.682,0.133-1.338,0.375-1.943L348.031,244.262z M351.582,244.262
	c0.676-1.672,2.207-2.906,4.148-2.906c1.766,0,3.486,0.643,5.01,1.562l0.166,1.344h2.039l0.199-3.627
	c-2.363-0.762-4.885-1.203-7.371-1.203c-2.285,0-4.287,0.6-5.93,2.203c-0.771,0.752-1.393,1.648-1.812,2.627H351.582z"/>
<path fill-rule="evenodd" clip-rule="evenodd" fill="#BE2F37" d="M308.564,265.896c0.145,0.225,0.305,0.441,0.479,0.648
	c2.084,2.566,5.205,3.287,8.328,3.287c3.525,0,6.426-0.861,8.426-3.941l-3.031,0.006c-1.281,1.34-3.268,2.016-5.113,2.016
	c-1.906,0-3.771-0.691-5.021-2.021L308.564,265.896z M324.496,259.996c-0.039,1.77-0.227,3.619-1.076,5.029
	c-0.188,0.311-0.408,0.598-0.654,0.861l3.031,0.01c0.023-0.039,0.045-0.076,0.064-0.109c1.162-1.85,1.49-3.787,1.58-5.795
	L324.496,259.996z M306.963,259.996c0.113,2.086,0.477,4.174,1.602,5.895l4.066,0.006c-0.512-0.547-0.92-1.197-1.186-1.949
	c-0.389-1.029-0.559-2.5-0.627-3.941L306.963,259.996z M324.502,254.07v3.787c0,0.674,0.012,1.398-0.006,2.139h2.945
	c0.043-1.045,0.023-2.105,0.023-3.182v-2.744H324.502z M306.918,254.07v3.787c0,0.703,0.008,1.422,0.045,2.143l3.855-0.004
	c-0.055-1.07-0.055-2.135-0.055-2.98v-2.945H306.918z M327.465,254.07v-3.908h-2.963v3.908H327.465z M310.764,254.07v-3.908h-3.846
	v3.908H310.764z M324.393,244.262l0.109,1.658v4.242h2.963v-4.242l0.109-1.658H324.393z M306.809,244.262l0.109,1.658v4.242h3.846
	v-4.242l0.109-1.658H306.809z M327.574,244.262l0.133-1.945l1.682-0.242l0.238-1.922h-7.289l0.242,1.922l1.684,0.242l0.129,1.945
	H327.574z M310.873,244.262l0.131-1.945l1.684-0.242l0.242-1.922h-8.172l0.24,1.922l1.68,0.242l0.131,1.945H310.873z"/>
<path fill-rule="evenodd" clip-rule="evenodd" fill="#004684" d="M526.711,189.924v4.49l-0.42,6.244l-2.916,0.418l-0.416,3.332
	h14.158l-0.414-3.332l-2.918-0.418l-0.416-6.244v-4.49H526.711 M521.979,174.188l4.732,7.945v7.791h6.658v-7.791l4.824-7.945h-4.377
	l-2.043,3.363l-1.988-3.363H521.979 M538.193,174.188l5.588-9.203l4.719-7.006l2.08-0.418l0.418-3.332h-11.102l0.414,3.332
	l3.334,0.418l-9.828,16.209H538.193 M529.785,174.188l-9.602-16.209l3.334-0.418l0.414-3.332h-14.434l0.414,3.332l2.086,0.418
	l3.674,5.621l6.307,10.588H529.785z"/>
<path fill-rule="evenodd" clip-rule="evenodd" fill="#004684" d="M478.527,189.924v4.49l-0.418,6.244l-2.918,0.418l-0.414,3.332
	h33.246l-0.42-8.328l-3.334,0.418l-0.412,3.748l-6.873,0.412h-11.383l-0.414-6.244v-4.49H478.527z M478.527,174.188v15.736h6.66
	v-10.156h8.814l8.396,0.42l0.418-3.752h-17.629v-2.248H478.527z M485.188,174.188v-16.627h10.064l7.146,0.418l0.418,3.4l3.328,0.414
	l0.416-7.564h-31.783l0.414,3.332l2.918,0.418l0.418,6.246v9.963H485.188z"/>
<path fill-rule="evenodd" clip-rule="evenodd" fill="#004684" d="M442.146,189.924l5.828,15.109h3.332l5.562-15.109h-4.035
	l-1.736,4.697l-1.805-4.697H442.146z M458.643,174.188l-5.809,15.736h4.035l5.787-15.736H458.643z M436.082,174.188l6.064,15.736
	h7.146l-6.051-15.736H436.082z M462.656,174.188l3.361-9.131l3.057-7.078l2.08-0.418l0.414-3.332h-10.684l0.416,3.332l3.332,0.418
	l-5.99,16.209H462.656z M443.242,174.188l-6.234-16.209l3.334-0.418l0.414-3.332h-13.811l0.416,3.332l2.082,0.418l2.502,5.482
	l4.137,10.727H443.242z"/>
<path fill-rule="evenodd" clip-rule="evenodd" fill="#004684" d="M409.256,189.924l8.723,14.484h10.129l-0.414-3.332l-2.918-0.418
	l-4.098-5.621l-3.389-5.113H409.256z M391.951,189.924v4.49l-0.42,6.244l-2.914,0.418l-0.416,3.332h13.326l-0.42-3.332l-2.496-0.418
	v-10.734H391.951z M391.951,174.188v15.736h6.66v-7.654h6.039l4.605,7.654h8.033l-6.049-9.113c3.74-1.219,6.695-3.533,8.504-6.609
	l-6.92-0.014c-0.531,0.83-1.186,1.598-1.996,2.248c-2.986,2.434-7.148,2.5-10.898,2.5h-1.318v-4.748H391.951z M398.611,174.188
	v-15.795c1.945-0.486,3.889-0.832,5.902-0.832c6.104,0,10.131,2.982,10.131,9.369c0,2.531-0.496,5.131-1.82,7.246l6.92,0.012
	c1.275-2.162,1.98-4.715,1.98-7.533c0-4.025-1.527-7.703-4.93-10.066c-2.988-2.082-6.799-2.359-10.342-2.359h-18.252l0.416,3.332
	l2.914,0.418l0.42,6.246v9.963H398.611z"/>
<path fill-rule="evenodd" clip-rule="evenodd" fill="#004684" d="M343.604,189.924c0.314,3.623,1.178,7.193,3.506,10.043
	c3.609,4.441,9.025,5.689,14.436,5.689c6.178,0,11.246-1.525,14.713-7.01c1.764-2.799,2.416-5.715,2.65-8.736l-5.064,0.014
	c-0.139,2.645-0.559,5.303-1.816,7.406c-2.016,3.328-6.18,4.996-9.998,4.996c-4.648,0-9.158-2.359-10.756-6.871
	c-0.555-1.477-0.852-3.477-1.006-5.535L343.604,189.924z M373.9,174.188v10.719c0,1.561,0.031,3.285-0.057,5.012l5.064,0.006
	c0.178-2.229,0.125-4.502,0.125-6.824v-8.912H373.9z M343.434,174.188v10.719c0,1.641,0.025,3.332,0.17,5.008l6.664,0.01
	c-0.176-2.307-0.176-4.68-0.176-6.475v-9.262H343.434z M379.033,174.188v-9.963l0.416-6.246l2.918-0.418l0.416-3.332H370.15
	l0.418,3.332l2.912,0.418l0.42,6.246v9.963H379.033z M350.092,174.188v-9.963l0.42-6.246l2.914-0.418l0.412-3.332h-14.152
	l0.416,3.332l2.914,0.418l0.418,6.246v9.963H350.092z"/>
<path fill-rule="evenodd" clip-rule="evenodd" fill="#004684" d="M328.219,189.924c0.266,0.869,0.414,1.852,0.414,2.963
	c0,5.83-4.584,9.439-10.207,9.439c-3.467,0-6.658-1.668-9.504-3.537l-0.418-3.404l-3.328-0.414l-0.418,8.395
	c4.578,1.252,9.438,2.291,14.225,2.291c8.469,0,16.309-5.342,16.309-14.436c0-0.445-0.02-0.881-0.055-1.311L328.219,189.924z
	 M308.648,174.188c2.697,3.109,6.75,5.299,10.334,7.318c4.016,2.293,7.98,4.207,9.236,8.404l7.018,0.014
	c-0.334-3.73-2.102-6.82-5.148-9.182c-2.707-2.084-6.316-4.096-9.301-5.83c-0.432-0.244-0.867-0.488-1.299-0.738L308.648,174.188z
	 M319.488,174.188c-3.752-2.156-7.377-4.564-7.377-9.477c0-4.445,3.26-8.396,7.844-8.396c3.055,0,6.035,1.109,8.678,2.703l0.412,3.4
	l3.334,0.416l0.412-7.773c-4.092-1.318-8.465-2.082-12.768-2.082c-3.955,0-7.426,1.041-10.271,3.818
	c-2.566,2.498-4.164,5.9-4.164,9.508c0,3.215,1.215,5.764,3.061,7.887L319.488,174.188z"/>
<path fill-rule="evenodd" clip-rule="evenodd" fill="#004684" d="M692.029,142.719l-0.119,0.965h14.156l-0.121-0.965H692.029z
	 M689.609,111.25l6.045,10.152v12.287l-0.412,6.246l-2.918,0.414l-0.295,2.369h13.916l-0.293-2.369l-2.918-0.414l-0.412-6.246
	v-12.287l6.162-10.152h-4.381l-3.383,5.572l-3.297-5.572H689.609 M708.484,111.25l4.248-6.988l4.717-7.01l2.082-0.416l0.414-3.334
	h-11.1l0.412,3.334l3.33,0.416l-8.484,13.998H708.484 M697.424,111.25l-8.289-13.998l3.33-0.416l0.418-3.334h-14.438l0.416,3.334
	l2.084,0.416l3.678,5.619l4.986,8.379H697.424z"/>
<path fill-rule="evenodd" clip-rule="evenodd" fill="#004684" d="M648.232,142.719l-0.123,0.965h14.16l-0.121-0.965H648.232z
	 M651.855,111.25v22.439l-0.414,6.246l-2.914,0.414l-0.295,2.369h13.916l-0.299-2.369l-2.912-0.414l-0.418-6.246V111.25H651.855z
	 M658.52,111.25V96.836h8.748l5.482,0.416l0.412,3.818l3.332,0.416l0.42-7.984h-43.449l0.422,7.984l3.326-0.416l0.418-3.818
	l5.484-0.416h8.74v14.414H658.52z"/>
<path fill-rule="evenodd" clip-rule="evenodd" fill="#004684" d="M615.594,142.719l-0.117,0.965h14.156l-0.121-0.965H615.594z
	 M619.223,111.25v22.439l-0.416,6.246l-2.916,0.414l-0.297,2.369h13.918l-0.297-2.369l-2.914-0.414l-0.414-6.246V111.25H619.223z
	 M625.887,111.25v-7.75l0.414-6.248l2.914-0.416l0.418-3.334h-14.156l0.414,3.334l2.916,0.416l0.416,6.248v7.75H625.887z"/>
<path fill-rule="evenodd" clip-rule="evenodd" fill="#004684" d="M598.748,142.719l1.023,1.59h5.689v-1.59H598.748z
	 M565.605,142.719l-0.119,0.965h12.215l-0.121-0.965H565.605z M578.533,111.25l20.215,31.469h6.713v-31.473l-4.719,0.004v23.133
	l-14.885-23.133H578.533z M569.238,111.25v22.439l-0.422,6.246l-2.914,0.414l-0.297,2.369h11.975l-0.299-2.369l-2.914-0.414
	l-0.416-6.246V111.25H569.238z M605.461,111.25v-7.75l0.416-6.248l2.916-0.416l0.418-3.334h-12.217l0.414,3.334l2.918,0.416
	l0.416,6.248v7.746L605.461,111.25z M573.951,111.25v-7.129l4.582,7.129h7.324l-11.422-17.748h-8.949l0.416,3.334l2.914,0.416
	l0.422,6.248v7.75H573.951z"/>
<path fill-rule="evenodd" clip-rule="evenodd" fill="#004684" d="M528.6,142.719c3.061,1.668,6.646,2.213,10.23,2.213
	c3.727,0,7.051-0.555,9.861-2.203L528.6,142.719z M520.719,111.25v12.93c0,5.203,0.275,10.896,3.676,15.061
	c1.221,1.504,2.646,2.637,4.205,3.482l20.092-0.004c1.85-1.072,3.479-2.625,4.854-4.795c3.055-4.861,2.773-10.066,2.773-15.549
	V111.25h-5.133v12.93c0,3.955,0.205,8.951-1.873,12.424c-2.016,3.332-6.18,4.996-9.998,4.996c-4.65,0-9.16-2.359-10.756-6.871
	c-1.182-3.123-1.182-8.605-1.182-12.006V111.25H520.719z M556.318,111.25v-7.75l0.416-6.248l2.918-0.416l0.414-3.334h-12.631
	l0.418,3.334l2.912,0.416l0.42,6.248v7.75H556.318z M527.377,111.25v-7.75l0.416-6.248l2.916-0.416l0.42-3.334h-14.162l0.42,3.334
	l2.912,0.416l0.42,6.248v7.75H527.377z"/>
<path fill-rule="evenodd" clip-rule="evenodd" fill="#004684" d="M497.916,142.719l-0.121,0.965h13.742l-0.121-0.965H497.916z
	 M460.646,142.719l-0.119,0.965h12.633l-0.123-0.965H460.646z M501.443,111.25l0.104,22.439l-0.422,6.246l-2.914,0.414l-0.295,2.369
	h13.5l-0.293-2.369l-2.92-0.414l-0.418-6.246V111.25H501.443z M472.527,111.25l11.041,28.686h3.334l11.309-28.686h-3.984
	l-7.607,19.176l-7.312-19.176H472.527z M464.273,111.25v22.439l-0.416,6.246l-2.914,0.414l-0.297,2.369h12.391l-0.297-2.369
	l-2.914-0.414l-0.416-6.246V111.25H464.273z M498.211,111.25l3.191-8.102l0.041,8.102h6.342v-7.75l0.418-6.248l2.92-0.416
	l0.414-3.334h-10.271l-7.039,17.748H498.211z M469.41,111.25v-8.102l3.117,8.102h6.779l-6.773-17.748h-12.006l0.416,3.334
	l2.914,0.416l0.416,6.248v7.75H469.41z"/>
<path fill-rule="evenodd" clip-rule="evenodd" fill="#004684" d="M440.643,142.719l-0.121,0.965h13.742l-0.123-0.965H440.643z
	 M403.371,142.719l-0.119,0.965h12.633l-0.121-0.965H403.371z M444.166,111.25l0.1,22.439l-0.412,6.246l-2.914,0.414l-0.297,2.369
	h13.498l-0.295-2.369l-2.918-0.414l-0.414-6.246V111.25H444.166z M415.256,111.25l11.037,28.686h3.332l11.314-28.686h-3.986
	l-7.605,19.176l-7.318-19.176H415.256z M407,111.25v22.439l-0.418,6.246l-2.916,0.414l-0.295,2.369h12.393l-0.295-2.369
	l-2.916-0.414l-0.414-6.246V111.25H407z M440.939,111.25l3.189-8.102l0.037,8.102h6.348v-7.75l0.414-6.248l2.918-0.416l0.418-3.334
	h-10.27l-7.041,17.748H440.939z M412.139,111.25v-8.102l3.117,8.102h6.773l-6.773-17.748h-12.004l0.414,3.334l2.916,0.416L407,103.5
	v7.75H412.139z"/>
<path fill-rule="evenodd" clip-rule="evenodd" fill="#004684" d="M363.75,142.719c3.176,1.508,6.727,2.213,10.482,2.213
	c3.787,0,7.312-0.715,10.461-2.227L363.75,142.719z M351.615,111.25c-0.453,2.396-0.631,4.883-0.631,7.377
	c0,6.734,1.25,13.326,5.762,18.6c2.008,2.424,4.377,4.232,7.004,5.484l20.943,0.008c2.746-1.33,5.205-3.254,7.307-5.836
	c4.234-5.207,5.412-11.73,5.412-18.256c0-2.51-0.172-4.986-0.609-7.385l-7.137,0.008c0.463,2.465,0.668,4.988,0.668,7.377
	c0,10.203-3.752,22.973-16.102,22.973c-12.422,0-16.172-12.77-16.172-22.973c0-2.389,0.203-4.912,0.672-7.383L351.615,111.25z
	 M358.732,111.25c1.543-8.145,5.967-15.666,15.5-15.666c9.479,0,13.893,7.521,15.434,15.66l7.137,0.006
	c-0.775-4.248-2.389-8.225-5.359-11.639c-4.51-5.137-10.479-7.357-17.211-7.357c-7.082,0-13.326,2.498-17.766,8.049
	c-2.633,3.238-4.109,6.982-4.852,10.938L358.732,111.25z"/>
<path fill-rule="evenodd" clip-rule="evenodd" fill="#004684" d="M317.941,142.719c3.451,1.609,7.311,2.213,11.521,2.213
	c4.121,0,8.359-0.604,12.201-2.209L317.941,142.719z M305.465,111.25c-0.482,2.377-0.707,4.768-0.707,7.031
	c0,7.008,1.664,13.672,6.314,19.084c2.051,2.432,4.35,4.16,6.869,5.346l23.723,0.008c1.205-0.498,2.371-1.1,3.482-1.814v-3.955
	c-3.957,2.846-9.439,4.441-14.295,4.441c-12.635,0-19.018-10.756-19.018-22.277c0-2.531,0.299-5.234,0.9-7.863H305.465z
	 M312.734,111.25c0.676-2.924,1.736-5.758,3.195-8.17c3.053-5.066,7.775-7.496,13.604-7.496c3.887,0,7.492,1.182,10.965,3.195
	l0.414,3.537l3.332,0.418l0.418-7.982l-1.043-0.277c-5.066-1.32-9.16-2.221-14.436-2.221c-7.148,0-13.604,1.666-18.391,7.285
	c-2.732,3.186-4.453,7.408-5.328,11.721L312.734,111.25z"/>
<polygon fill-rule="evenodd" clip-rule="evenodd" fill="#004684" points="377.975,79.779 378.059,80 381.391,80 381.479,79.779 "/>
<path fill-rule="evenodd" clip-rule="evenodd" fill="#004684" d="M637.809,79.779l2.953,4.596h5.693v-4.596H637.809z M609.82,79.779
	L609.811,80l-2.916,0.416l-0.42,3.332h12.215l-0.416-3.332L615.359,80l-0.014-0.221H609.82z M615.346,79.779l-0.4-6.025V44.189
	l22.863,35.59h8.646V43.562l0.412-6.246l2.92-0.416l0.414-3.332h-12.217l0.418,3.332l2.916,0.416l0.414,6.246v30.885l-26.305-40.879
	h-8.953l0.42,3.332l2.916,0.416l0.412,6.246v30.191l-0.402,6.025H615.346z"/>
<path fill-rule="evenodd" clip-rule="evenodd" fill="#004684" d="M593.322,79.779L593.416,80l-3.336,0.416l-0.416,3.332h13.881
	l-0.414-3.332L601.047,80l-0.107-0.221H593.322z M558.818,79.779L558.715,80l-2.086,0.416l-0.414,3.332h11.105l-0.42-3.332
	L563.57,80l0.084-0.221H558.818z M569.127,65.357l9.154-23.459l9.232,23.459H569.127z M563.654,79.779l4.146-11.09h21.029
	l4.492,11.09h7.617l-2.529-5.262l-16.516-41.781h-4.027L562.115,72.92l-3.297,6.859H563.654z"/>
<path fill-rule="evenodd" clip-rule="evenodd" fill="#004684" d="M553.709,79.779v-2.762c-1.568,1.127-3.377,2.059-5.289,2.771
	L553.709,79.779z"/>
<path fill-rule="evenodd" clip-rule="evenodd" fill="#004684" d="M521.924,79.779c4.475,3.918,9.912,5.221,16.098,5.221
	c5.414,0,11.039-1.045,15.688-4.027v-1.193h-5.289c-2.918,1.096-6.074,1.68-9.006,1.68c-2.992,0-5.637-0.602-7.92-1.676
	L521.924,79.779z M531.494,79.779c-7.377-3.459-11.098-11.809-11.098-20.6c0-5.344,1.318-11.453,4.092-16.031
	c3.055-5.068,7.777-7.496,13.605-7.496c3.887,0,7.492,1.182,10.967,3.193l0.414,3.539l3.33,0.418l0.42-7.982l-1.041-0.279
	c-5.068-1.318-9.162-2.221-14.436-2.221c-7.15,0-13.604,1.668-18.393,7.287c-4.234,4.928-6.037,12.352-6.037,18.738
	c0,7.012,1.664,13.674,6.314,19.086c0.738,0.871,1.502,1.648,2.291,2.346L531.494,79.779z"/>
<path fill-rule="evenodd" clip-rule="evenodd" fill="#004684" d="M496.592,79.779L496.572,80l-2.91,0.416l-0.418,3.332h14.158
	l-0.42-3.332L504.074,80l-0.018-0.221H496.592z M504.057,79.779l-0.404-6.025V43.562l0.422-6.246l2.908-0.416l0.42-3.332h-14.158
	l0.418,3.332l2.91,0.416l0.422,6.246v30.191l-0.402,6.025H504.057z"/>
<path fill-rule="evenodd" clip-rule="evenodd" fill="#004684" d="M476.686,79.779l2.391,3.969h10.133l-0.412-3.332L485.879,80
	l-0.16-0.221H476.686z M452.648,79.779L452.635,80l-2.918,0.416l-0.414,3.332h13.326l-0.418-3.332L459.715,80v-0.221H452.648z
	 M459.715,58.279V37.734c1.941-0.486,3.889-0.834,5.895-0.834c6.111,0,10.135,2.984,10.135,9.371c0,3.537-0.971,7.219-3.816,9.506
	c-2.984,2.432-7.148,2.502-10.896,2.502H459.715z M459.715,79.779v-18.17h6.037l10.934,18.17h9.033l-3.934-5.398l-9.438-14.23
	c6.383-2.08,10.479-7.355,10.479-14.158c0-4.025-1.529-7.703-4.93-10.062c-2.984-2.082-6.799-2.361-10.342-2.361h-18.252
	l0.414,3.332l2.918,0.416l0.416,6.246v30.191l-0.402,6.025H459.715z"/>
<polygon fill-rule="evenodd" clip-rule="evenodd" fill="#004684" points="445.338,79.779 445.119,75.42 441.791,75.836 
	441.373,79.584 438.164,79.779 "/>
<path fill-rule="evenodd" clip-rule="evenodd" fill="#004684" d="M415.639,79.779L415.625,80l-2.914,0.416l-0.418,3.332h33.242
	l-0.197-3.969h-7.174L434.504,80h-11.383l-0.018-0.221H415.639z M423.104,79.779l-0.398-6.025V59.111h8.812l8.396,0.416l0.418-3.75
	h-17.627V36.9h10.062l7.146,0.416l0.418,3.4l3.332,0.418l0.416-7.566h-31.787l0.418,3.332l2.914,0.416l0.416,6.246v30.191
	l-0.402,6.025H423.104z"/>
<path fill-rule="evenodd" clip-rule="evenodd" fill="#004684" d="M395.635,79.779L395.619,80l-2.914,0.416l-0.416,3.332h13.742
	l-0.422-3.332L402.699,80l-0.016-0.221H395.635z M358.363,79.779L358.35,80l-2.918,0.416l-0.412,3.332h12.627l-0.412-3.332
	L364.318,80l-0.016-0.221H358.363z M364.303,79.779l-0.4-6.025V43.217l14.072,36.562h3.504l14.418-36.562l0.137,30.537l-0.398,6.025
	h7.049l-0.404-6.025V43.562l0.42-6.246l2.91-0.416l0.422-3.332h-10.275l-14.643,36.924l-14.088-36.924H355.02l0.412,3.332
	l2.918,0.416l0.416,6.246v30.191l-0.402,6.025H364.303z"/>
<path fill-rule="evenodd" clip-rule="evenodd" fill="#004684" d="M341.863,79.779l0.09,0.221l-3.33,0.416l-0.416,3.332h13.881
	l-0.418-3.332L349.59,80l-0.109-0.221H341.863z M307.359,79.779L307.254,80l-2.084,0.416l-0.412,3.332h11.1l-0.414-3.332L312.111,80
	l0.082-0.221H307.359z M317.664,65.357l9.16-23.459l9.23,23.459H317.664 M312.193,79.779l4.15-11.09h21.031l4.488,11.09h7.617
	l-2.527-5.262l-16.52-41.781h-4.025L310.654,72.92l-3.295,6.859H312.193z"/>
</svg>
